<svg width="299" height="38" viewBox="0 0 299 38" fill="none" xmlns="http://www.w3.org/2000/svg">
<path d="M16.7202 0.636363H24.3196V25.9915C24.3196 28.3352 23.7929 30.3712 22.7393 32.0994C21.6977 33.8277 20.2476 35.1593 18.3892 36.0945C16.5308 37.0296 14.3705 37.4972 11.9084 37.4972C9.71851 37.4972 7.72988 37.1125 5.94247 36.343C4.1669 35.5618 2.75829 34.3781 1.71662 32.7919C0.674953 31.1939 0.160038 29.1875 0.171875 26.7727H7.82457C7.84825 27.7315 8.04356 28.5542 8.41051 29.2408C8.7893 29.9155 9.30421 30.4363 9.95526 30.8033C10.6181 31.1584 11.3994 31.3359 12.299 31.3359C13.246 31.3359 14.045 31.1347 14.696 30.7322C15.3589 30.3179 15.862 29.7143 16.2053 28.9212C16.5485 28.1281 16.7202 27.1515 16.7202 25.9915V0.636363ZM64.0923 18.8182C64.0923 22.7836 63.3407 26.1572 61.8374 28.9389C60.3459 31.7206 58.3099 33.8454 55.7294 35.3132C53.1607 36.7692 50.2725 37.4972 47.0646 37.4972C43.8331 37.4972 40.933 36.7633 38.3643 35.2955C35.7957 33.8277 33.7656 31.7029 32.2741 28.9212C30.7827 26.1394 30.0369 22.7718 30.0369 18.8182C30.0369 14.8527 30.7827 11.4792 32.2741 8.69744C33.7656 5.91572 35.7957 3.79687 38.3643 2.34091C40.933 0.873105 43.8331 0.139203 47.0646 0.139203C50.2725 0.139203 53.1607 0.873105 55.7294 2.34091C58.3099 3.79687 60.3459 5.91572 61.8374 8.69744C63.3407 11.4792 64.0923 14.8527 64.0923 18.8182ZM56.2976 18.8182C56.2976 16.2495 55.9129 14.0833 55.1435 12.3196C54.3859 10.5559 53.3146 9.21828 51.9297 8.30682C50.5447 7.39536 48.9231 6.93963 47.0646 6.93963C45.2062 6.93963 43.5845 7.39536 42.1996 8.30682C40.8146 9.21828 39.7375 10.5559 38.968 12.3196C38.2105 14.0833 37.8317 16.2495 37.8317 18.8182C37.8317 21.3868 38.2105 23.553 38.968 25.3168C39.7375 27.0805 40.8146 28.4181 42.1996 29.3295C43.5845 30.241 45.2062 30.6967 47.0646 30.6967C48.9231 30.6967 50.5447 30.241 51.9297 29.3295C53.3146 28.4181 54.3859 27.0805 55.1435 25.3168C55.9129 23.553 56.2976 21.3868 56.2976 18.8182ZM103.204 18.8182C103.204 22.7836 102.452 26.1572 100.949 28.9389C99.4572 31.7206 97.4212 33.8454 94.8407 35.3132C92.2721 36.7692 89.3838 37.4972 86.176 37.4972C82.9444 37.4972 80.0443 36.7633 77.4757 35.2955C74.907 33.8277 72.877 31.7029 71.3855 28.9212C69.894 26.1394 69.1483 22.7718 69.1483 18.8182C69.1483 14.8527 69.894 11.4792 71.3855 8.69744C72.877 5.91572 74.907 3.79687 77.4757 2.34091C80.0443 0.873105 82.9444 0.139203 86.176 0.139203C89.3838 0.139203 92.2721 0.873105 94.8407 2.34091C97.4212 3.79687 99.4572 5.91572 100.949 8.69744C102.452 11.4792 103.204 14.8527 103.204 18.8182ZM95.4089 18.8182C95.4089 16.2495 95.0242 14.0833 94.2548 12.3196C93.4972 10.5559 92.426 9.21828 91.041 8.30682C89.6561 7.39536 88.0344 6.93963 86.176 6.93963C84.3175 6.93963 82.6958 7.39536 81.3109 8.30682C79.926 9.21828 78.8488 10.5559 78.0794 12.3196C77.3218 14.0833 76.943 16.2495 76.943 18.8182C76.943 21.3868 77.3218 23.553 78.0794 25.3168C78.8488 27.0805 79.926 28.4181 81.3109 29.3295C82.6958 30.241 84.3175 30.6967 86.176 30.6967C88.0344 30.6967 89.6561 30.241 91.041 29.3295C92.426 28.4181 93.4972 27.0805 94.2548 25.3168C95.0242 23.553 95.4089 21.3868 95.4089 18.8182ZM139.314 0.636363V37H132.674L116.853 14.1129H116.587V37H108.899V0.636363H115.646L131.342 23.5057H131.662V0.636363H139.314ZM169.779 12.3906C169.53 11.5265 169.181 10.763 168.731 10.1001C168.281 9.42543 167.731 8.85724 167.08 8.3956C166.441 7.92211 165.707 7.56108 164.878 7.3125C164.061 7.06392 163.156 6.93963 162.161 6.93963C160.303 6.93963 158.669 7.40128 157.261 8.32457C155.864 9.24787 154.775 10.5914 153.994 12.3551C153.213 14.107 152.822 16.2495 152.822 18.7827C152.822 21.3158 153.207 23.4702 153.976 25.2457C154.745 27.0213 155.834 28.3767 157.243 29.3118C158.652 30.2351 160.315 30.6967 162.232 30.6967C163.972 30.6967 165.458 30.389 166.689 29.7734C167.932 29.1461 168.879 28.2642 169.53 27.1278C170.193 25.9915 170.524 24.648 170.524 23.0973L172.087 23.3281H162.712V17.5398H177.928V22.1207C177.928 25.3168 177.254 28.063 175.904 30.3594C174.555 32.6439 172.696 34.4077 170.329 35.6506C167.962 36.8816 165.251 37.4972 162.197 37.4972C158.788 37.4972 155.793 36.7455 153.213 35.2422C150.632 33.727 148.62 31.5786 147.176 28.7969C145.743 26.0033 145.027 22.6889 145.027 18.8537C145.027 15.9062 145.453 13.2784 146.306 10.9702C147.17 8.65009 148.377 6.68513 149.928 5.07528C151.478 3.46543 153.284 2.24029 155.343 1.39986C157.403 0.559421 159.634 0.139203 162.037 0.139203C164.097 0.139203 166.014 0.44105 167.79 1.04474C169.566 1.6366 171.14 2.47704 172.513 3.56605C173.898 4.65506 175.028 5.95123 175.904 7.45454C176.78 8.94602 177.343 10.5914 177.591 12.3906H169.779ZM203.43 11.0945C203.288 9.66217 202.678 8.54948 201.601 7.75639C200.524 6.9633 199.062 6.56676 197.216 6.56676C195.961 6.56676 194.901 6.74432 194.037 7.09943C193.173 7.44271 192.51 7.92211 192.049 8.53764C191.599 9.15317 191.374 9.85156 191.374 10.6328C191.35 11.2839 191.486 11.852 191.782 12.3374C192.09 12.8227 192.51 13.2429 193.043 13.598C193.576 13.9413 194.191 14.2431 194.89 14.5036C195.588 14.7521 196.334 14.9652 197.127 15.1428L200.394 15.924C201.98 16.2791 203.436 16.7526 204.762 17.3445C206.087 17.9363 207.236 18.6643 208.206 19.5284C209.177 20.3925 209.929 21.4105 210.461 22.5824C211.006 23.7543 211.284 25.0978 211.296 26.6129C211.284 28.8383 210.716 30.7678 209.591 32.4013C208.479 34.023 206.869 35.2836 204.762 36.1832C202.667 37.071 200.139 37.5149 197.18 37.5149C194.244 37.5149 191.688 37.0651 189.51 36.1655C187.343 35.2659 185.651 33.9342 184.431 32.1705C183.224 30.3949 182.591 28.1991 182.532 25.5831H189.971C190.054 26.8023 190.403 27.8203 191.019 28.6371C191.646 29.442 192.481 30.0516 193.522 30.4659C194.576 30.8684 195.766 31.0696 197.091 31.0696C198.393 31.0696 199.524 30.8802 200.483 30.5014C201.453 30.1226 202.205 29.5959 202.738 28.9212C203.27 28.2464 203.537 27.4711 203.537 26.5952C203.537 25.7784 203.294 25.0919 202.809 24.5355C202.335 23.9792 201.637 23.5057 200.713 23.1151C199.802 22.7244 198.683 22.3693 197.358 22.0497L193.398 21.0554C190.332 20.3097 187.912 19.1437 186.136 17.5575C184.36 15.9714 183.479 13.8348 183.49 11.1477C183.479 8.94602 184.065 7.02249 185.248 5.37713C186.444 3.73177 188.083 2.44744 190.167 1.52415C192.25 0.600851 194.617 0.139203 197.269 0.139203C199.968 0.139203 202.323 0.600851 204.336 1.52415C206.36 2.44744 207.934 3.73177 209.059 5.37713C210.183 7.02249 210.763 8.92827 210.799 11.0945H203.43ZM216.467 37V0.636363H224.155V15.6399H239.763V0.636363H247.433V37H239.763V21.9787H224.155V37H216.467ZM261.46 0.636363V37H253.772V0.636363H261.46ZM298.201 0.636363V37H291.56L275.74 14.1129H275.474V37H267.786V0.636363H274.533L290.229 23.5057H290.548V0.636363H298.201Z" fill="#6FB6C0"/>
</svg>
